<svg width="500" height="500" viewBox="0 0 500 500" fill="none" xmlns="http://www.w3.org/2000/svg">
<rect width="500" height="500" fill="#0B5B57"/>
<path d="M286.84 207.686C296.269 207.686 303.636 210.338 308.94 215.642C314.539 220.946 317.338 228.313 317.338 237.742C317.338 240.099 317.191 242.604 316.896 245.256C316.601 247.613 316.012 249.676 315.128 251.444C311.297 250.855 307.025 250.413 302.31 250.118C297.595 249.529 291.997 249.234 285.514 249.234C272.254 249.234 258.994 250.413 245.734 252.77C232.474 255.127 219.803 257.043 207.722 258.516C194.462 289.751 183.559 319.07 175.014 346.474C166.469 373.878 159.839 400.987 155.124 427.802C145.105 425.445 136.265 421.172 128.604 414.984C120.943 408.796 113.723 400.103 106.946 388.906C109.009 384.191 111.513 378.593 114.46 372.11C117.407 365.333 120.943 356.935 125.068 346.916C129.193 336.603 134.055 324.227 139.654 309.788C145.547 295.055 152.472 277.522 160.428 257.19C148.052 253.065 139.949 245.845 136.118 235.532C137.591 234.059 141.717 232.438 148.494 230.67C155.271 228.607 163.522 226.397 173.246 224.04C177.666 212.548 181.497 202.382 184.738 193.542C187.979 184.407 190.926 175.862 193.578 167.906C196.23 159.655 198.587 151.699 200.65 144.038C203.007 136.082 205.07 127.684 206.838 118.844H204.628C193.431 118.844 184.296 116.192 177.224 110.888C170.447 105.584 167.058 98.6593 167.058 90.114C167.058 87.7567 167.353 84.9573 167.942 81.716C168.826 78.4746 169.857 75.6753 171.036 73.318C176.635 74.202 182.086 74.7913 187.39 75.086C192.989 75.3807 200.208 75.528 209.048 75.528C227.612 75.528 244.997 75.086 261.204 74.202C277.411 73.0233 291.997 71.8446 304.962 70.666C318.222 69.4873 329.567 68.456 338.996 67.572C348.425 66.3933 355.645 65.804 360.654 65.804C367.431 65.804 373.472 69.34 378.776 76.412C384.08 83.484 388.205 93.5026 391.152 106.468C381.723 105.584 374.061 104.995 368.168 104.7C362.569 104.405 357.56 104.258 353.14 104.258C338.112 104.258 324.263 104.995 311.592 106.468C299.216 107.647 287.429 109.12 276.232 110.888C274.464 113.54 272.401 116.929 270.044 121.054C267.981 125.179 265.182 131.073 261.646 138.734C258.11 146.101 253.543 155.825 247.944 167.906C242.64 179.987 235.863 195.31 227.612 213.874C239.104 212.106 250.007 210.633 260.32 209.454C270.928 208.275 279.768 207.686 286.84 207.686Z" fill="white"/>
</svg>
